<?xml version="1.0" encoding="iso-8859-1"?>
<!-- Generator: Adobe Illustrator 19.0.0, SVG Export Plug-In . SVG Version: 6.00 Build 0)  -->
<svg version="1.1" id="Layer_1" xmlns="http://www.w3.org/2000/svg" xmlns:xlink="http://www.w3.org/1999/xlink" x="0px" y="0px"
	 viewBox="0 0 512 512" style="enable-background:new 0 0 512 512;" xml:space="preserve">
<g>
	<g>
		<path d="M256,0c-42.351,0-76.8,34.449-76.8,76.8c0,42.351,34.449,76.8,76.8,76.8c42.351,0,76.8-34.449,76.8-76.8
			C332.8,34.449,298.351,0,256,0z M256,128c-28.279,0-51.2-22.921-51.2-51.2s22.921-51.2,51.2-51.2c28.279,0,51.2,22.921,51.2,51.2
			S284.279,128,256,128z"/>
	</g>
</g>
<g>
	<g>
		<path d="M499.2,256H342.528l-10.138-55.774c-2.219-12.177-12.817-21.026-25.19-21.026H204.8c-12.373,0-22.972,8.849-25.19,21.026
			L169.472,256H12.8C5.726,256,0,261.726,0,268.8c0,7.074,5.726,12.8,12.8,12.8h12.8V512h25.6v-25.6h409.6V512h25.6V281.6h12.8
			c7.074,0,12.8-5.726,12.8-12.8C512,261.726,506.274,256,499.2,256z M268.8,204.8h38.4l9.31,51.2H268.8V204.8z M204.8,204.8h38.4
			V256h-47.71L204.8,204.8z M460.8,460.8H51.2V281.6h409.6V460.8z"/>
	</g>
</g>
<g>
</g>
<g>
</g>
<g>
</g>
<g>
</g>
<g>
</g>
<g>
</g>
<g>
</g>
<g>
</g>
<g>
</g>
<g>
</g>
<g>
</g>
<g>
</g>
<g>
</g>
<g>
</g>
<g>
</g>
</svg>
